<svg
              version="1.1"
              id="svg1"
              width="132.28346"
              height="56.692913"
              viewBox="0 0 132.28346 56.692913"
              xmlns="http://www.w3.org/2000/svg"
              xmlns:svg="http://www.w3.org/2000/svg"
            >
              <defs id="defs1" />
              <g id="g1">
                <path
                  style="fill: #000000"
                  d="M 12.679026,44.397974 C 12.55564,44.364564 11.761939,43.935666 10.915246,43.444867 10.068554,42.954068 8.9406111,42.305565 8.4087061,42.003749 7.8768021,41.701932 7.2957001,41.28159 7.1173681,41.069654 l -0.32424,-0.385337 V 37.53812 c 0,-2.535293 0.03631,-3.216405 0.186981,-3.507778 0.179728,-0.347555 1.187472,-0.992337 4.1594759,-2.661342 1.230418,-0.690973 1.635875,-0.870075 1.969709,-0.870075 0.564264,0 5.734061,3.076528 5.984896,3.56159 0.149596,0.289286 0.176513,0.944555 0.145911,3.552007 -0.0374,3.186266 -0.03858,3.1984 -0.342792,3.521989 -0.364684,0.387908 -5.227956,3.185956 -5.678984,3.267362 -0.173229,0.03127 -0.415913,0.02951 -0.539299,-0.0039 z m 5.830637,-9.527878 c 0,-0.526228 -0.485713,-1.001325 -1.700787,-1.663616 -0.48504,-0.264377 -1.386472,-0.783306 -2.003183,-1.153175 -1.011765,-0.606802 -1.713353,-0.841247 -1.713353,-0.57254 0,0.09762 1.343384,0.928272 3.263508,2.017919 1.007832,0.571933 1.725305,1.177912 1.846411,1.559484 0.118797,0.374295 0.307404,0.258903 0.307404,-0.188072 z m 47.59055,9.477005 c -0.202925,-0.118193 -0.220318,-0.4563 -0.218543,-4.248137 0.0011,-2.265848 0.04995,-4.195479 0.108638,-4.288069 0.08513,-0.134306 0.664276,-0.159603 2.864213,-0.12511 2.470367,0.03873 2.816537,0.07047 3.324432,0.304812 0.697439,0.321793 1.334284,1.025435 1.499049,1.65628 0.228365,0.874353 -0.131687,1.933529 -0.80789,2.376594 -0.401348,0.262973 -0.397049,0.557929 0.01372,0.941682 0.525291,0.490738 0.677991,0.918033 0.764722,2.139905 0.06511,0.917348 0.04579,1.172598 -0.09557,1.262086 -0.280386,0.177506 -2.329649,0.143192 -2.475219,-0.04145 -0.06829,-0.08662 -0.157985,-0.53856 -0.19933,-1.004323 -0.135803,-1.529846 -0.522036,-1.902416 -1.903072,-1.835751 l -0.764922,0.03692 -0.03617,1.315559 c -0.01989,0.723557 -0.0977,1.389698 -0.172907,1.480314 -0.164298,0.197968 -1.573999,0.219235 -1.901159,0.02868 z m 4.509664,-5.086544 c 0.376323,-0.376323 0.397431,-0.862411 0.05243,-1.207411 -0.225752,-0.225752 -0.38951,-0.25241 -1.354331,-0.220473 l -1.097527,0.03633 -0.03978,0.556823 c -0.07819,1.094249 -0.02956,1.143964 1.118778,1.143964 0.905641,0 1.043481,-0.03228 1.320434,-0.309234 z m 7.708852,5.092928 c -2.612985,-0.656291 -3.951826,-3.293835 -3.035777,-5.980544 0.151868,-0.445419 0.441872,-0.857534 0.990119,-1.407026 0.674016,-0.675546 0.895503,-0.813602 1.694783,-1.056376 2.36835,-0.719364 4.749558,0.353798 5.553645,2.502914 0.383475,1.024916 0.362275,2.529562 -0.04872,3.458901 -0.668434,1.511448 -2.113364,2.486094 -3.797762,2.561699 -0.485039,0.02177 -1.095368,-0.01403 -1.356287,-0.07957 z m 1.675372,-2.203149 c 0.600356,-0.310457 0.812596,-0.85284 0.812596,-2.076608 0,-1.223768 -0.21224,-1.766151 -0.812596,-2.076608 -1.139627,-0.589323 -1.942541,0.276973 -1.93265,2.085213 0.006,1.093449 0.237755,1.711819 0.763885,2.038036 0.430592,0.266979 0.697213,0.273815 1.168765,0.02997 z m 4.536413,2.215336 c -0.15789,-0.102153 -0.14454,-0.213885 0.0945,-0.790567 0.1531,-0.369381 0.27836,-0.719463 0.27836,-0.777961 0,-0.08948 1.27141,-3.671104 1.81648,-5.117117 0.0914,-0.242519 0.23647,-0.667716 0.32235,-0.944882 0.31882,-1.028971 0.38235,-1.071094 1.61211,-1.068937 0.6047,0.0011 1.17045,0.04701 1.25723,0.102107 0.0868,0.0551 0.4642,0.975489 0.83873,2.045315 0.37452,1.069825 1.0305,2.894793 1.45774,4.055484 0.42723,1.16069 0.75788,2.209509 0.73477,2.330708 -0.0344,0.180165 -0.20217,0.227278 -0.91997,0.258273 -1.21191,0.05233 -1.43093,-0.02384 -1.66159,-0.577827 -0.10715,-0.257377 -0.25932,-0.509609 -0.33815,-0.560516 -0.0788,-0.05091 -0.72497,-0.09343 -1.43588,-0.09449 l -1.29257,-0.0019 -0.28372,0.598426 -0.28372,0.598425 -1.00639,0.03223 c -0.55352,0.01772 -1.08914,-0.02131 -1.19027,-0.08674 z m 4.76862,-3.020985 c 0.14637,-0.09268 0.12491,-0.27435 -0.12996,-1.100433 -0.18388,-0.595961 -0.37292,-0.989424 -0.47537,-0.989424 -0.19336,0 -0.81411,1.773773 -0.71299,2.03731 0.0731,0.190608 1.03948,0.229125 1.31832,0.05255 z m 7.69872,3.059936 c -0.91582,-0.177971 -1.60848,-0.505703 -2.16092,-1.02245 -0.95305,-0.891466 -1.00155,-1.125238 -0.96082,-4.63128 l 0.0351,-3.023622 h 1.32283 1.32284 l 0.063,2.840674 c 0.0545,2.456528 0.0937,2.887471 0.29005,3.186726 0.45835,0.698552 1.5985,0.809283 2.25914,0.219408 l 0.41144,-0.367367 0.063,-2.93972 0.063,-2.939721 1.350866,-0.03572 c 1.33946,-0.03542 1.35152,-0.03313 1.42794,0.27137 0.0424,0.168901 0.0581,1.573952 0.035,3.122337 -0.0397,2.653052 -0.0591,2.849795 -0.33744,3.414954 -0.3583,0.727594 -1.12466,1.370453 -1.97239,1.654541 -0.629326,0.210898 -2.617436,0.365531 -3.212596,0.249873 z m 7.203396,-0.08355 c -0.11313,-0.136319 -0.14327,-1.252346 -0.1185,-4.388304 l 0.0332,-4.205493 2.58268,-0.03561 c 2.38128,-0.03284 2.65119,-0.01371 3.46124,0.24533 1.06403,0.340248 1.81211,1.0207 2.3043,2.095982 0.28639,0.625672 0.32916,0.887905 0.33285,2.040758 0.004,1.238905 -0.0217,1.376327 -0.40437,2.165944 -0.46436,0.958173 -1.08837,1.558844 -1.99541,1.920786 -0.52186,0.208241 -1.01204,0.251516 -3.32814,0.293816 -2.26332,0.04134 -2.74143,0.01913 -2.86786,-0.133206 z m 4.76991,-2.389072 c 0.70264,-0.354325 1.00268,-0.910377 1.00268,-1.858268 0,-0.851163 -0.29141,-1.470132 -0.87605,-1.86075 -0.37015,-0.247319 -0.5686,-0.285495 -1.32283,-0.25448 l -0.88734,0.03649 -0.0349,1.935799 c -0.0238,1.320379 0.0112,1.991255 0.10991,2.110236 0.23285,0.28056 1.35691,0.219542 2.00849,-0.109027 z m 5.37172,2.393701 c -0.19638,-0.143878 -0.21206,-0.522044 -0.18156,-4.377953 l 0.0334,-4.220473 h 1.25984 1.25985 l 0.0334,4.220473 c 0.0386,4.885905 0.13858,4.535433 -1.29323,4.535433 -0.51875,0 -0.98732,-0.06638 -1.11166,-0.15748 z m 6.8794,0.04332 c -0.80845,-0.20809 -1.80106,-0.794143 -2.29449,-1.354702 -0.70176,-0.797247 -1.01655,-1.704824 -1.01655,-2.93085 0,-1.478264 0.27221,-2.176171 1.21755,-3.121625 0.67623,-0.676318 0.90269,-0.818116 1.68711,-1.056376 3.34668,-1.016522 6.39297,1.589331 5.78398,4.947724 -0.27965,1.542196 -1.03526,2.544571 -2.38033,3.15769 -0.86976,0.396463 -2.22106,0.557928 -2.99727,0.358139 z m 1.60647,-2.218685 c 0.65234,-0.337338 0.97718,-1.387274 0.81955,-2.648893 -0.11258,-0.901112 -0.50753,-1.472661 -1.12371,-1.626174 -1.02495,-0.255355 -1.58973,0.518227 -1.58973,2.177454 0,1.19299 0.19049,1.736156 0.72512,2.067646 0.43059,0.266979 0.69722,0.273815 1.16877,0.02997 z m -66.907806,2.049375 c -0.0065,-0.169374 -0.0045,-8.110627 0.0021,-8.385814 0.0032,-0.133062 0.625034,-0.157658 3.185073,-0.125984 l 3.181102,0.03936 0.658935,0.365128 c 2.003784,1.110335 2.196047,3.875866 0.356317,5.125287 -0.657693,0.446661 -1.47632,0.619424 -2.946123,0.621751 -0.670305,0.0011 -1.292275,0.04858 -1.382157,0.105595 -0.109974,0.06976 -0.163237,0.409057 -0.162857,1.037441 8.78e-4,1.451425 0.08508,1.37472 -1.508983,1.37472 -1.014658,0 -1.378927,-0.04147 -1.383378,-0.157481 z m 4.452713,-4.502216 c 1.073904,-0.0031 1.590227,-0.905409 0.90828,-1.587356 -0.291794,-0.291794 -0.388928,-0.311714 -1.35433,-0.277738 l -1.039992,0.0366 -0.03824,0.815655 c -0.04178,0.89116 0.159854,1.217639 0.668162,1.081862 0.138583,-0.03702 0.523837,-0.06808 0.856121,-0.06903 z m -35.369852,2.899052 c -2.083954,-1.097537 -3.364696,-1.919957 -3.605878,-2.315491 -0.214908,-0.352444 -0.241705,-0.651329 -0.242124,-2.700537 -6.35e-4,-3.105977 -0.118229,-2.902779 2.548925,-4.40443 1.498065,-0.843435 2.189674,-1.165354 2.503639,-1.165354 0.292179,0 0.720636,0.177947 1.312428,0.54508 0.483248,0.299794 1.29801,0.76475 1.810584,1.033236 0.512574,0.268486 1.122023,0.683865 1.354331,0.923065 l 0.422378,0.434909 v 2.565201 2.565201 l -0.409449,0.431628 c -0.416788,0.439364 -3.796211,2.385697 -4.387832,2.527112 -0.238052,0.0569 -0.587247,-0.06055 -1.307002,-0.43962 z m 5.416042,-7.152741 c -0.108663,-0.439619 -0.551076,-0.906116 -1.163819,-1.227176 -0.263257,-0.137939 -0.932192,-0.520508 -1.486523,-0.850153 -0.882798,-0.524976 -1.84615,-0.810978 -1.647165,-0.489014 0.03767,0.06095 0.763851,0.499874 1.613734,0.975381 0.914826,0.511842 1.750835,1.082744 2.049179,1.399362 0.586984,0.622937 0.753647,0.673257 0.634594,0.1916 z m 1.626824,-2.414146 c -0.06583,-0.06321 -1.140158,-0.69387 -2.387402,-1.401459 -1.247244,-0.707589 -2.402582,-1.40705 -2.567418,-1.554358 -0.609565,-0.544747 -0.655147,-0.858065 -0.584471,-4.017534 0.03773,-1.686654 0.124523,-3.07239 0.204773,-3.269391 0.14344,-0.352122 0.704502,-0.753105 2.128218,-1.52101 0.450394,-0.242927 1.413266,-0.787712 2.139716,-1.210634 0.944093,-0.549628 1.448641,-0.768948 1.768973,-0.768948 0.333883,0 0.944745,0.285563 2.395717,1.119939 3.548775,2.04071 3.723043,2.177714 3.783605,2.974549 0.0158,0.207874 0.02018,1.663367 0.0097,3.234428 l -0.019,2.856476 -0.321195,0.381718 c -0.176657,0.209946 -0.842799,0.676938 -1.480315,1.037761 -0.637515,0.360824 -1.790781,1.015447 -2.562812,1.45472 -1.063703,0.605228 -1.52295,0.798676 -1.896063,0.798676 -0.270804,0 -0.546229,-0.05172 -0.612055,-0.114933 z m 6.116535,-9.353378 c 0,-0.340699 -0.342009,-0.904962 -0.676093,-1.115452 -1.250356,-0.787789 -4.426565,-2.518599 -4.621879,-2.518599 -0.597462,0 -0.05994,0.436935 1.721859,1.399643 2.045374,1.105119 3.324144,2.075684 3.324144,2.52297 0,0.06806 0.05669,0.08871 0.125985,0.04589 0.06929,-0.04282 0.125984,-0.193328 0.125984,-0.334452 z m 17.91348,8.855714 c -0.134256,-0.08514 -0.166995,-2.244525 -0.17451,-11.510107 -0.0051,-6.272917 0.03011,-11.468982 0.07821,-11.546811 0.06267,-0.101398 1.744057,-0.141508 5.931837,-0.141508 7.629108,0 9.056121,0.17376 11.387302,1.386574 1.101772,0.573205 2.316693,1.727076 2.785021,2.645074 0.823814,1.61481 0.798823,4.398772 -0.05253,5.851494 -0.487846,0.832447 -1.669769,1.954291 -2.421567,2.298475 -0.371573,0.170112 -0.675588,0.384766 -0.675588,0.477009 0,0.09224 0.303084,0.338765 0.673521,0.547826 0.370436,0.209062 0.908281,0.646814 1.195211,0.972784 1.090257,1.238598 1.437244,2.490372 1.648352,5.946517 0.06667,1.091466 0.187132,2.169444 0.267696,2.395508 0.286478,0.803861 0.366919,0.785825 -3.504778,0.785825 -2.697611,0 -3.559688,-0.03821 -3.733752,-0.165488 -0.18908,-0.138258 -0.256097,-0.526934 -0.4073,-2.362204 -0.282338,-3.426941 -0.718147,-4.470926 -2.162707,-5.180788 -0.531059,-0.260965 -0.804937,-0.294693 -2.724212,-0.335488 -1.958298,-0.04162 -2.147765,-0.02625 -2.303646,0.18693 -0.134194,0.183521 -0.166759,1.009862 -0.155125,3.936377 0.01177,2.959583 -0.019,3.725471 -0.153047,3.810448 -0.2174,0.137815 -5.281263,0.139245 -5.498386,0.0016 z M 68.233038,19.215959 c 1.319694,-0.96311 1.175625,-3.311772 -0.239526,-3.904849 -0.777495,-0.325841 -5.743915,-0.439633 -6.045042,-0.138506 -0.159352,0.159351 -0.200561,0.556342 -0.215177,2.072932 -0.0099,1.03171 0.019,1.97246 0.06432,2.090557 0.07501,0.19548 0.35112,0.211338 3.081231,0.176966 2.795201,-0.03519 3.022964,-0.05537 3.354197,-0.2971 z m 10.902583,13.275854 c -0.22113,-0.22113 -0.223418,-21.0222 -0.0023,-21.243282 0.221612,-0.221612 8.538573,-0.21567 8.817313,0.0063 0.1198,0.0954 0.3557,0.877606 0.59842,1.984252 0.51888,2.365728 0.61395,2.777193 1.76118,7.622047 0.14216,0.600365 0.43545,0.468911 0.56216,-0.251969 0.0609,-0.346456 0.47372,-2.103937 0.91739,-3.905512 0.44367,-1.801574 1.00644,-4.15293 1.2506,-5.225235 0.24417,-1.072304 0.51166,-1.992696 0.59442,-2.045315 0.22051,-0.140187 8.247036,-0.123078 8.334086,0.01776 0.0399,0.06451 0.0725,5.262184 0.0724,11.550384 -5e-5,9.085605 -0.0328,11.453876 -0.15954,11.534321 -0.0877,0.05568 -1.33181,0.102099 -2.764656,0.10316 -2.20637,0.0016 -2.6356,-0.02849 -2.80391,-0.196812 -0.17572,-0.175719 -0.1974,-0.887165 -0.18715,-6.141732 0.0137,-7.002472 0.0333,-6.324779 -0.17796,-6.149463 -0.0923,0.07664 -0.27075,0.607989 -0.39647,1.18078 -0.9759,4.446448 -2.44508,10.553813 -2.62959,10.931203 l -0.15399,0.314961 -2.10812,0.03455 c -1.22677,0.02011 -2.20589,-0.01777 -2.34196,-0.09059 -0.17208,-0.0921 -0.33874,-0.567027 -0.63107,-1.798334 -0.21848,-0.920254 -0.4782,-2.013346 -0.57716,-2.429094 -0.57459,-2.414044 -1.36039,-5.830202 -1.57809,-6.860546 -0.25265,-1.195729 -0.43234,-1.597619 -0.56112,-1.255009 -0.0369,0.0982 -0.0813,2.928153 -0.0986,6.288783 l -0.0315,6.110236 -2.775618,0.03383 c -2.052902,0.02502 -2.815589,-0.0061 -2.929134,-0.119685 z m 33.862229,-0.05642 c -4.10934,-0.544983 -7.08139,-2.238758 -8.22809,-4.689187 -0.39459,-0.843229 -0.7471,-2.313048 -0.62872,-2.621535 0.0522,-0.136102 0.78575,-0.169053 3.76327,-0.169053 h 3.6984 l 0.35111,0.724409 c 0.44423,0.916513 1.15099,1.468996 2.14376,1.675801 0.95743,0.199443 3.0751,0.0898 3.78263,-0.195841 1.11998,-0.45216 1.50333,-1.455026 0.81007,-2.119209 -0.44802,-0.429229 -1.08973,-0.652165 -4.36959,-1.518021 -5.04331,-1.331391 -6.48015,-1.931203 -7.80305,-3.257397 -1.20979,-1.212793 -1.48751,-1.892329 -1.55666,-3.808905 -0.0612,-1.697553 0.15854,-2.563645 0.9305,-3.666653 0.62238,-0.889277 1.51996,-1.613732 2.75991,-2.227585 2.24502,-1.111415 6.50297,-1.506305 10.01927,-0.929206 2.17706,0.357299 4.14222,1.294697 5.21454,2.487379 0.67406,0.749722 1.36661,2.123024 1.59111,3.155124 0.25995,1.195063 0.49999,1.121817 -3.55132,1.083646 l -3.55171,-0.03346 -0.39753,-0.566929 c -0.5862,-0.835998 -1.27425,-1.169785 -2.54927,-1.236707 -1.28608,-0.0675 -2.05244,0.128601 -2.62954,0.672871 -0.46649,0.439955 -0.53047,0.740865 -0.24439,1.149301 0.29632,0.423061 0.90589,0.641256 3.43997,1.231329 5.39678,1.256666 7.40443,2.005074 8.81824,3.287236 1.19528,1.083986 1.59335,1.866755 1.79132,3.522414 0.3289,2.750756 -1.24797,5.364029 -4.09242,6.78215 -2.52842,1.260563 -6.03913,1.72858 -9.51181,1.268031 z M 44.826629,31.404037 C 43.358171,30.637062 41.758261,29.661013 41.356771,29.287199 L 40.934859,28.89437 v -2.582307 c 0,-3.042688 -0.06095,-2.890926 1.548056,-3.854867 2.371664,-1.420848 2.964635,-1.694493 3.530364,-1.6292 0.683146,0.07884 3.750032,1.819545 4.409211,2.502576 l 0.479757,0.497117 -0.03881,2.514586 -0.03881,2.514586 -0.377953,0.37301 c -0.602855,0.594971 -4.076631,2.528896 -4.542481,2.528896 -0.219114,0 -0.704016,-0.159628 -1.07756,-0.35473 z m 5.305081,-7.1133 c 0,-0.157811 -0.08108,-0.402687 -0.180179,-0.544169 -0.226662,-0.323606 -3.829138,-2.383487 -3.950611,-2.258943 -0.125054,0.128217 0.36872,0.460053 2.788058,1.873687 0.535187,0.312713 0.944637,0.702451 1.034096,0.984311 0.103424,0.325863 0.308636,0.289369 0.308636,-0.05489 z M 18.320687,31.15538 c -0.8645,-0.461491 -2.121468,-1.199424 -2.924194,-1.716717 -0.738764,-0.476076 -0.752382,-0.554464 -0.696428,-4.008617 0.02966,-1.83082 0.03482,-1.86146 0.376527,-2.233954 0.190551,-0.207721 1.168504,-0.845066 2.173228,-1.416322 2.378366,-1.352268 2.405882,-1.353323 4.472441,-0.171484 2.097447,1.199502 2.583711,1.55254 2.765348,2.007703 0.11462,0.287225 0.141264,1.040581 0.09782,2.765815 -0.07099,2.819257 -0.01377,2.701419 -1.815794,3.739596 -3.067569,1.767284 -3.072933,1.768531 -4.448948,1.03398 z m 5.606299,-6.875685 c 0,-0.163884 -0.116204,-0.4457 -0.258231,-0.626258 -0.239203,-0.304098 -1.864655,-1.327879 -3.106829,-1.956818 -0.527105,-0.266885 -1.05101,-0.354816 -1.037136,-0.174072 0.004,0.05197 0.857146,0.59871 1.895904,1.214982 1.321129,0.783795 1.944565,1.228616 2.074723,1.480315 0.226038,0.437108 0.431569,0.466564 0.431569,0.06185 z m 0.906529,-4.515464 c -1.93437,-1.017153 -3.082096,-1.772366 -3.391675,-2.231749 -0.271437,-0.402786 -0.286334,-0.541798 -0.283204,-2.642739 0.0046,-3.077992 -0.105389,-2.886947 2.519633,-4.377024 2.503973,-1.421364 2.63412,-1.442127 3.954678,-0.630906 0.490855,0.301533 1.317661,0.77962 1.837346,1.062415 0.519685,0.282796 1.11496,0.691839 1.322834,0.908984 l 0.377953,0.39481 v 2.588757 2.588758 l -0.516507,0.457954 c -0.57042,0.505755 -3.579594,2.230513 -4.203995,2.409589 -0.345856,0.09919 -0.549094,0.03272 -1.617063,-0.528849 z m 5.644652,-7.014136 c 0,-0.394537 -0.692874,-0.947436 -2.217257,-1.769327 -1.635098,-0.881583 -2.340762,-1.00502 -1.051762,-0.183976 0.446779,0.284581 1.195607,0.726856 1.664061,0.982834 0.468455,0.255978 0.975179,0.632381 1.126055,0.836451 0.315886,0.427259 0.478903,0.472878 0.478903,0.134018 z m 6.744321,6.693193 C 36.254699,18.906566 35.220053,18.236202 34.923275,17.953592 L 34.383678,17.439755 V 14.90814 c 0,-2.511738 0.0025,-2.534533 0.312717,-2.903257 0.295012,-0.350603 3.541332,-2.279144 4.350817,-2.584691 0.429564,-0.162142 0.875718,0.03422 3.336466,1.468454 1.989096,1.159334 1.952866,1.08556 1.952285,3.975367 -5.48e-4,2.728015 -0.04843,2.874516 -1.17497,3.595157 -1.434633,0.917724 -3.465287,1.960997 -3.815958,1.960496 -0.216503,-3.1e-4 -1.072866,-0.394239 -2.122547,-0.976378 z m 6.183216,-6.759602 c -0.0435,-0.17334 -0.262912,-0.453991 -0.487571,-0.62367 -0.547934,-0.413842 -3.189971,-1.845728 -3.395111,-1.840025 -0.270063,0.0075 0.521787,0.585527 1.763084,1.286981 0.643579,0.363684 1.376903,0.872802 1.629609,1.131373 0.502951,0.514623 0.610264,0.524553 0.489989,0.04534 z"
                  id="path1"
                />
                <path
                  style="fill: #000000"
                  d="M 12.679026,44.397974 C 12.55564,44.364564 11.761939,43.935666 10.915246,43.444867 10.068554,42.954068 8.9406111,42.305565 8.4087061,42.003749 7.8768021,41.701932 7.2957001,41.28159 7.1173681,41.069654 l -0.32424,-0.385337 V 37.53812 c 0,-2.535293 0.03631,-3.216405 0.186981,-3.507778 0.179728,-0.347555 1.187472,-0.992337 4.1594759,-2.661342 1.230418,-0.690973 1.635875,-0.870075 1.969709,-0.870075 0.564264,0 5.734061,3.076528 5.984896,3.56159 0.149596,0.289286 0.176513,0.944555 0.145911,3.552007 -0.0374,3.186266 -0.03858,3.1984 -0.342792,3.521989 -0.364684,0.387908 -5.227956,3.185956 -5.678984,3.267362 -0.173229,0.03127 -0.415913,0.02951 -0.539299,-0.0039 z m 5.830637,-9.527878 c 0,-0.526228 -0.485713,-1.001325 -1.700787,-1.663616 -0.48504,-0.264377 -1.386472,-0.783306 -2.003183,-1.153175 -1.011765,-0.606802 -1.713353,-0.841247 -1.713353,-0.57254 0,0.09762 1.343384,0.928272 3.263508,2.017919 1.007832,0.571933 1.725305,1.177912 1.846411,1.559484 0.118797,0.374295 0.307404,0.258903 0.307404,-0.188072 z m 47.59055,9.477005 c -0.202925,-0.118193 -0.220318,-0.4563 -0.218543,-4.248137 0.0011,-2.265848 0.04995,-4.195479 0.108638,-4.288069 0.08513,-0.134306 0.664276,-0.159603 2.864213,-0.12511 2.470367,0.03873 2.816537,0.07047 3.324432,0.304812 0.697439,0.321793 1.334284,1.025435 1.499049,1.65628 0.228365,0.874353 -0.131687,1.933529 -0.80789,2.376594 -0.401348,0.262973 -0.397049,0.557929 0.01372,0.941682 0.525291,0.490738 0.677991,0.918033 0.764722,2.139905 0.06511,0.917348 0.04579,1.172598 -0.09557,1.262086 -0.280386,0.177506 -2.329649,0.143192 -2.475219,-0.04145 -0.06829,-0.08662 -0.157985,-0.53856 -0.19933,-1.004323 -0.135803,-1.529846 -0.522036,-1.902416 -1.903072,-1.835751 l -0.764922,0.03692 -0.03617,1.315559 c -0.01989,0.723557 -0.0977,1.389698 -0.172907,1.480314 -0.164298,0.197968 -1.573999,0.219235 -1.901159,0.02868 z m 4.509664,-5.086544 c 0.376323,-0.376323 0.397431,-0.862411 0.05243,-1.207411 -0.225752,-0.225752 -0.38951,-0.25241 -1.354331,-0.220473 l -1.097527,0.03633 -0.03978,0.556823 c -0.07819,1.094249 -0.02956,1.143964 1.118778,1.143964 0.905641,0 1.043481,-0.03228 1.320434,-0.309234 z m 7.708852,5.092928 c -2.612985,-0.656291 -3.951826,-3.293835 -3.035777,-5.980544 0.151868,-0.445419 0.441872,-0.857534 0.990119,-1.407026 0.674016,-0.675546 0.895503,-0.813602 1.694783,-1.056376 2.36835,-0.719364 4.749558,0.353798 5.553645,2.502914 0.383475,1.024916 0.362275,2.529562 -0.04872,3.458901 -0.668434,1.511448 -2.113364,2.486094 -3.797762,2.561699 -0.485039,0.02177 -1.095368,-0.01403 -1.356287,-0.07957 z m 1.675372,-2.203149 c 0.600356,-0.310457 0.812596,-0.85284 0.812596,-2.076608 0,-1.223768 -0.21224,-1.766151 -0.812596,-2.076608 -1.139627,-0.589323 -1.942541,0.276973 -1.93265,2.085213 0.006,1.093449 0.237755,1.711819 0.763885,2.038036 0.430592,0.266979 0.697213,0.273815 1.168765,0.02997 z m 4.536413,2.215336 c -0.15789,-0.102153 -0.14454,-0.213885 0.0945,-0.790567 0.1531,-0.369381 0.27836,-0.719463 0.27836,-0.777961 0,-0.08948 1.27141,-3.671104 1.81648,-5.117117 0.0914,-0.242519 0.23647,-0.667716 0.32235,-0.944882 0.31882,-1.028971 0.38235,-1.071094 1.61211,-1.068937 0.6047,0.0011 1.17045,0.04701 1.25723,0.102107 0.0868,0.0551 0.4642,0.975489 0.83873,2.045315 0.37452,1.069825 1.0305,2.894793 1.45774,4.055484 0.42723,1.16069 0.75788,2.209509 0.73477,2.330708 -0.0344,0.180165 -0.20217,0.227278 -0.91997,0.258273 -1.21191,0.05233 -1.43093,-0.02384 -1.66159,-0.577827 -0.10715,-0.257377 -0.25932,-0.509609 -0.33815,-0.560516 -0.0788,-0.05091 -0.72497,-0.09343 -1.43588,-0.09449 l -1.29257,-0.0019 -0.28372,0.598426 -0.28372,0.598425 -1.00639,0.03223 c -0.55352,0.01772 -1.08914,-0.02131 -1.19027,-0.08674 z m 4.76862,-3.020985 c 0.14637,-0.09268 0.12491,-0.27435 -0.12996,-1.100433 -0.18388,-0.595961 -0.37292,-0.989424 -0.47537,-0.989424 -0.19336,0 -0.81411,1.773773 -0.71299,2.03731 0.0731,0.190608 1.03948,0.229125 1.31832,0.05255 z m 7.69872,3.059936 c -0.91582,-0.177971 -1.60848,-0.505703 -2.16092,-1.02245 -0.95305,-0.891466 -1.00155,-1.125238 -0.96082,-4.63128 l 0.0351,-3.023622 h 1.32283 1.32284 l 0.063,2.840674 c 0.0545,2.456528 0.0937,2.887471 0.29005,3.186726 0.45835,0.698552 1.5985,0.809283 2.25914,0.219408 l 0.41144,-0.367367 0.063,-2.93972 0.063,-2.939721 1.350866,-0.03572 c 1.33946,-0.03542 1.35152,-0.03313 1.42794,0.27137 0.0424,0.168901 0.0581,1.573952 0.035,3.122337 -0.0397,2.653052 -0.0591,2.849795 -0.33744,3.414954 -0.3583,0.727594 -1.12466,1.370453 -1.97239,1.654541 -0.629326,0.210898 -2.617436,0.365531 -3.212596,0.249873 z m 7.203396,-0.08355 c -0.11313,-0.136319 -0.14327,-1.252346 -0.1185,-4.388304 l 0.0332,-4.205493 2.58268,-0.03561 c 2.38128,-0.03284 2.65119,-0.01371 3.46124,0.24533 1.06403,0.340248 1.81211,1.0207 2.3043,2.095982 0.28639,0.625672 0.32916,0.887905 0.33285,2.040758 0.004,1.238905 -0.0217,1.376327 -0.40437,2.165944 -0.46436,0.958173 -1.08837,1.558844 -1.99541,1.920786 -0.52186,0.208241 -1.01204,0.251516 -3.32814,0.293816 -2.26332,0.04134 -2.74143,0.01913 -2.86786,-0.133206 z m 4.76991,-2.389072 c 0.70264,-0.354325 1.00268,-0.910377 1.00268,-1.858268 0,-0.851163 -0.29141,-1.470132 -0.87605,-1.86075 -0.37015,-0.247319 -0.5686,-0.285495 -1.32283,-0.25448 l -0.88734,0.03649 -0.0349,1.935799 c -0.0238,1.320379 0.0112,1.991255 0.10991,2.110236 0.23285,0.28056 1.35691,0.219542 2.00849,-0.109027 z m 5.37172,2.393701 c -0.19638,-0.143878 -0.21206,-0.522044 -0.18156,-4.377953 l 0.0334,-4.220473 h 1.25984 1.25985 l 0.0334,4.220473 c 0.0386,4.885905 0.13858,4.535433 -1.29323,4.535433 -0.51875,0 -0.98732,-0.06638 -1.11166,-0.15748 z m 6.8794,0.04332 c -0.80845,-0.20809 -1.80106,-0.794143 -2.29449,-1.354702 -0.70176,-0.797247 -1.01655,-1.704824 -1.01655,-2.93085 0,-1.478264 0.27221,-2.176171 1.21755,-3.121625 0.67623,-0.676318 0.90269,-0.818116 1.68711,-1.056376 3.34668,-1.016522 6.39297,1.589331 5.78398,4.947724 -0.27965,1.542196 -1.03526,2.544571 -2.38033,3.15769 -0.86976,0.396463 -2.22106,0.557928 -2.99727,0.358139 z m 1.60647,-2.218685 c 0.65234,-0.337338 0.97718,-1.387274 0.81955,-2.648893 -0.11258,-0.901112 -0.50753,-1.472661 -1.12371,-1.626174 -1.02495,-0.255355 -1.58973,0.518227 -1.58973,2.177454 0,1.19299 0.19049,1.736156 0.72512,2.067646 0.43059,0.266979 0.69722,0.273815 1.16877,0.02997 z m -66.907806,2.049375 c -0.0065,-0.169374 -0.0045,-8.110627 0.0021,-8.385814 0.0032,-0.133062 0.625034,-0.157658 3.185073,-0.125984 l 3.181102,0.03936 0.658935,0.365128 c 2.003784,1.110335 2.196047,3.875866 0.356317,5.125287 -0.657693,0.446661 -1.47632,0.619424 -2.946123,0.621751 -0.670305,0.0011 -1.292275,0.04858 -1.382157,0.105595 -0.109974,0.06976 -0.163237,0.409057 -0.162857,1.037441 8.78e-4,1.451425 0.08508,1.37472 -1.508983,1.37472 -1.014658,0 -1.378927,-0.04147 -1.383378,-0.157481 z m 4.452713,-4.502216 c 1.073904,-0.0031 1.590227,-0.905409 0.90828,-1.587356 -0.291794,-0.291794 -0.388928,-0.311714 -1.35433,-0.277738 l -1.039992,0.0366 -0.03824,0.815655 c -0.04178,0.89116 0.159854,1.217639 0.668162,1.081862 0.138583,-0.03702 0.523837,-0.06808 0.856121,-0.06903 z m -35.369852,2.899052 c -2.083954,-1.097537 -3.364696,-1.919957 -3.605878,-2.315491 -0.214908,-0.352444 -0.241705,-0.651329 -0.242124,-2.700537 -6.35e-4,-3.105977 -0.118229,-2.902779 2.548925,-4.40443 1.498065,-0.843435 2.189674,-1.165354 2.503639,-1.165354 0.292179,0 0.720636,0.177947 1.312428,0.54508 0.483248,0.299794 1.29801,0.76475 1.810584,1.033236 0.512574,0.268486 1.122023,0.683865 1.354331,0.923065 l 0.422378,0.434909 v 2.565201 2.565201 l -0.409449,0.431628 c -0.416788,0.439364 -3.796211,2.385697 -4.387832,2.527112 -0.238052,0.0569 -0.587247,-0.06055 -1.307002,-0.43962 z m 5.416042,-7.152741 c -0.108663,-0.439619 -0.551076,-0.906116 -1.163819,-1.227176 -0.263257,-0.137939 -0.932192,-0.520508 -1.486523,-0.850153 -0.882798,-0.524976 -1.84615,-0.810978 -1.647165,-0.489014 0.03767,0.06095 0.763851,0.499874 1.613734,0.975381 0.914826,0.511842 1.750835,1.082744 2.049179,1.399362 0.586984,0.622937 0.753647,0.673257 0.634594,0.1916 z m 1.626824,-2.414146 c -0.06583,-0.06321 -1.140158,-0.69387 -2.387402,-1.401459 -1.247244,-0.707589 -2.402582,-1.40705 -2.567418,-1.554358 -0.609565,-0.544747 -0.655147,-0.858065 -0.584471,-4.017534 0.03773,-1.686654 0.124523,-3.07239 0.204773,-3.269391 0.14344,-0.352122 0.704502,-0.753105 2.128218,-1.52101 0.450394,-0.242927 1.413266,-0.787712 2.139716,-1.210634 0.944093,-0.549628 1.448641,-0.768948 1.768973,-0.768948 0.333883,0 0.944745,0.285563 2.395717,1.119939 3.548775,2.04071 3.723043,2.177714 3.783605,2.974549 0.0158,0.207874 0.02018,1.663367 0.0097,3.234428 l -0.019,2.856476 -0.321195,0.381718 c -0.176657,0.209946 -0.842799,0.676938 -1.480315,1.037761 -0.637515,0.360824 -1.790781,1.015447 -2.562812,1.45472 -1.063703,0.605228 -1.52295,0.798676 -1.896063,0.798676 -0.270804,0 -0.546229,-0.05172 -0.612055,-0.114933 z m 6.116535,-9.353378 c 0,-0.340699 -0.342009,-0.904962 -0.676093,-1.115452 -1.250356,-0.787789 -4.426565,-2.518599 -4.621879,-2.518599 -0.597462,0 -0.05994,0.436935 1.721859,1.399643 2.045374,1.105119 3.324144,2.075684 3.324144,2.52297 0,0.06806 0.05669,0.08871 0.125985,0.04589 0.06929,-0.04282 0.125984,-0.193328 0.125984,-0.334452 z m 17.91348,8.855714 c -0.134256,-0.08514 -0.166995,-2.244525 -0.17451,-11.510107 -0.0051,-6.272917 0.03011,-11.468982 0.07821,-11.546811 0.06267,-0.101398 1.744057,-0.141508 5.931837,-0.141508 7.629108,0 9.056121,0.17376 11.387302,1.386574 1.101772,0.573205 2.316693,1.727076 2.785021,2.645074 0.823814,1.61481 0.798823,4.398772 -0.05253,5.851494 -0.487846,0.832447 -1.669769,1.954291 -2.421567,2.298475 -0.371573,0.170112 -0.675588,0.384766 -0.675588,0.477009 0,0.09224 0.303084,0.338765 0.673521,0.547826 0.370436,0.209062 0.908281,0.646814 1.195211,0.972784 1.090257,1.238598 1.437244,2.490372 1.648352,5.946517 0.06667,1.091466 0.187132,2.169444 0.267696,2.395508 0.286478,0.803861 0.366919,0.785825 -3.504778,0.785825 -2.697611,0 -3.559688,-0.03821 -3.733752,-0.165488 -0.18908,-0.138258 -0.256097,-0.526934 -0.4073,-2.362204 -0.282338,-3.426941 -0.718147,-4.470926 -2.162707,-5.180788 -0.531059,-0.260965 -0.804937,-0.294693 -2.724212,-0.335488 -1.958298,-0.04162 -2.147765,-0.02625 -2.303646,0.18693 -0.134194,0.183521 -0.166759,1.009862 -0.155125,3.936377 0.01177,2.959583 -0.019,3.725471 -0.153047,3.810448 -0.2174,0.137815 -5.281263,0.139245 -5.498386,0.0016 z M 68.233038,19.215959 c 1.319694,-0.96311 1.175625,-3.311772 -0.239526,-3.904849 -0.777495,-0.325841 -5.743915,-0.439633 -6.045042,-0.138506 -0.159352,0.159351 -0.200561,0.556342 -0.215177,2.072932 -0.0099,1.03171 0.019,1.97246 0.06432,2.090557 0.07501,0.19548 0.35112,0.211338 3.081231,0.176966 2.795201,-0.03519 3.022964,-0.05537 3.354197,-0.2971 z m 10.902583,13.275854 c -0.22113,-0.22113 -0.223418,-21.0222 -0.0023,-21.243282 0.221612,-0.221612 8.538573,-0.21567 8.817313,0.0063 0.1198,0.0954 0.3557,0.877606 0.59842,1.984252 0.51888,2.365728 0.61395,2.777193 1.76118,7.622047 0.14216,0.600365 0.43545,0.468911 0.56216,-0.251969 0.0609,-0.346456 0.47372,-2.103937 0.91739,-3.905512 0.44367,-1.801574 1.00644,-4.15293 1.2506,-5.225235 0.24417,-1.072304 0.51166,-1.992696 0.59442,-2.045315 0.22051,-0.140187 8.247036,-0.123078 8.334086,0.01776 0.0399,0.06451 0.0725,5.262184 0.0724,11.550384 -5e-5,9.085605 -0.0328,11.453876 -0.15954,11.534321 -0.0877,0.05568 -1.33181,0.102099 -2.764656,0.10316 -2.20637,0.0016 -2.6356,-0.02849 -2.80391,-0.196812 -0.17572,-0.175719 -0.1974,-0.887165 -0.18715,-6.141732 0.0137,-7.002472 0.0333,-6.324779 -0.17796,-6.149463 -0.0923,0.07664 -0.27075,0.607989 -0.39647,1.18078 -0.9759,4.446448 -2.44508,10.553813 -2.62959,10.931203 l -0.15399,0.314961 -2.10812,0.03455 c -1.22677,0.02011 -2.20589,-0.01777 -2.34196,-0.09059 -0.17208,-0.0921 -0.33874,-0.567027 -0.63107,-1.798334 -0.21848,-0.920254 -0.4782,-2.013346 -0.57716,-2.429094 -0.57459,-2.414044 -1.36039,-5.830202 -1.57809,-6.860546 -0.25265,-1.195729 -0.43234,-1.597619 -0.56112,-1.255009 -0.0369,0.0982 -0.0813,2.928153 -0.0986,6.288783 l -0.0315,6.110236 -2.775618,0.03383 c -2.052902,0.02502 -2.815589,-0.0061 -2.929134,-0.119685 z m 33.862229,-0.05642 c -4.10934,-0.544983 -7.08139,-2.238758 -8.22809,-4.689187 -0.39459,-0.843229 -0.7471,-2.313048 -0.62872,-2.621535 0.0522,-0.136102 0.78575,-0.169053 3.76327,-0.169053 h 3.6984 l 0.35111,0.724409 c 0.44423,0.916513 1.15099,1.468996 2.14376,1.675801 0.95743,0.199443 3.0751,0.0898 3.78263,-0.195841 1.11998,-0.45216 1.50333,-1.455026 0.81007,-2.119209 -0.44802,-0.429229 -1.08973,-0.652165 -4.36959,-1.518021 -5.04331,-1.331391 -6.48015,-1.931203 -7.80305,-3.257397 -1.20979,-1.212793 -1.48751,-1.892329 -1.55666,-3.808905 -0.0612,-1.697553 0.15854,-2.563645 0.9305,-3.666653 0.62238,-0.889277 1.51996,-1.613732 2.75991,-2.227585 2.24502,-1.111415 6.50297,-1.506305 10.01927,-0.929206 2.17706,0.357299 4.14222,1.294697 5.21454,2.487379 0.67406,0.749722 1.36661,2.123024 1.59111,3.155124 0.25995,1.195063 0.49999,1.121817 -3.55132,1.083646 l -3.55171,-0.03346 -0.39753,-0.566929 c -0.5862,-0.835998 -1.27425,-1.169785 -2.54927,-1.236707 -1.28608,-0.0675 -2.05244,0.128601 -2.62954,0.672871 -0.46649,0.439955 -0.53047,0.740865 -0.24439,1.149301 0.29632,0.423061 0.90589,0.641256 3.43997,1.231329 5.39678,1.256666 7.40443,2.005074 8.81824,3.287236 1.19528,1.083986 1.59335,1.866755 1.79132,3.522414 0.3289,2.750756 -1.24797,5.364029 -4.09242,6.78215 -2.52842,1.260563 -6.03913,1.72858 -9.51181,1.268031 z M 44.826629,31.404037 C 43.358171,30.637062 41.758261,29.661013 41.356771,29.287199 L 40.934859,28.89437 v -2.582307 c 0,-3.042688 -0.06095,-2.890926 1.548056,-3.854867 2.371664,-1.420848 2.964635,-1.694493 3.530364,-1.6292 0.683146,0.07884 3.750032,1.819545 4.409211,2.502576 l 0.479757,0.497117 -0.03881,2.514586 -0.03881,2.514586 -0.377953,0.37301 c -0.602855,0.594971 -4.076631,2.528896 -4.542481,2.528896 -0.219114,0 -0.704016,-0.159628 -1.07756,-0.35473 z m 5.305081,-7.1133 c 0,-0.157811 -0.08108,-0.402687 -0.180179,-0.544169 -0.226662,-0.323606 -3.829138,-2.383487 -3.950611,-2.258943 -0.125054,0.128217 0.36872,0.460053 2.788058,1.873687 0.535187,0.312713 0.944637,0.702451 1.034096,0.984311 0.103424,0.325863 0.308636,0.289369 0.308636,-0.05489 z M 18.320687,31.15538 c -0.8645,-0.461491 -2.121468,-1.199424 -2.924194,-1.716717 -0.738764,-0.476076 -0.752382,-0.554464 -0.696428,-4.008617 0.02966,-1.83082 0.03482,-1.86146 0.376527,-2.233954 0.190551,-0.207721 1.168504,-0.845066 2.173228,-1.416322 2.378366,-1.352268 2.405882,-1.353323 4.472441,-0.171484 2.097447,1.199502 2.583711,1.55254 2.765348,2.007703 0.11462,0.287225 0.141264,1.040581 0.09782,2.765815 -0.07099,2.819257 -0.01377,2.701419 -1.815794,3.739596 -3.067569,1.767284 -3.072933,1.768531 -4.448948,1.03398 z m 5.606299,-6.875685 c 0,-0.163884 -0.116204,-0.4457 -0.258231,-0.626258 -0.239203,-0.304098 -1.864655,-1.327879 -3.106829,-1.956818 -0.527105,-0.266885 -1.05101,-0.354816 -1.037136,-0.174072 0.004,0.05197 0.857146,0.59871 1.895904,1.214982 1.321129,0.783795 1.944565,1.228616 2.074723,1.480315 0.226038,0.437108 0.431569,0.466564 0.431569,0.06185 z m 0.906529,-4.515464 c -1.93437,-1.017153 -3.082096,-1.772366 -3.391675,-2.231749 -0.271437,-0.402786 -0.286334,-0.541798 -0.283204,-2.642739 0.0046,-3.077992 -0.105389,-2.886947 2.519633,-4.377024 2.503973,-1.421364 2.63412,-1.442127 3.954678,-0.630906 0.490855,0.301533 1.317661,0.77962 1.837346,1.062415 0.519685,0.282796 1.11496,0.691839 1.322834,0.908984 l 0.377953,0.39481 v 2.588757 2.588758 l -0.516507,0.457954 c -0.57042,0.505755 -3.579594,2.230513 -4.203995,2.409589 -0.345856,0.09919 -0.549094,0.03272 -1.617063,-0.528849 z m 5.644652,-7.014136 c 0,-0.394537 -0.692874,-0.947436 -2.217257,-1.769327 -1.635098,-0.881583 -2.340762,-1.00502 -1.051762,-0.183976 0.446779,0.284581 1.195607,0.726856 1.664061,0.982834 0.468455,0.255978 0.975179,0.632381 1.126055,0.836451 0.315886,0.427259 0.478903,0.472878 0.478903,0.134018 z m 6.744321,6.693193 C 36.254699,18.906566 35.220053,18.236202 34.923275,17.953592 L 34.383678,17.439755 V 14.90814 c 0,-2.511738 0.0025,-2.534533 0.312717,-2.903257 0.295012,-0.350603 3.541332,-2.279144 4.350817,-2.584691 0.429564,-0.162142 0.875718,0.03422 3.336466,1.468454 1.989096,1.159334 1.952866,1.08556 1.952285,3.975367 -5.48e-4,2.728015 -0.04843,2.874516 -1.17497,3.595157 -1.434633,0.917724 -3.465287,1.960997 -3.815958,1.960496 -0.216503,-3.1e-4 -1.072866,-0.394239 -2.122547,-0.976378 z m 6.183216,-6.759602 c -0.0435,-0.17334 -0.262912,-0.453991 -0.487571,-0.62367 -0.547934,-0.413842 -3.189971,-1.845728 -3.395111,-1.840025 -0.270063,0.0075 0.521787,0.585527 1.763084,1.286981 0.643579,0.363684 1.376903,0.872802 1.629609,1.131373 0.502951,0.514623 0.610264,0.524553 0.489989,0.04534 z"
                  id="path2"
                />
              </g>
</svg>